<?xml version="1.0"?>
<svg xmlns="http://www.w3.org/2000/svg" xmlns:xlink="http://www.w3.org/1999/xlink" xmlns:svgjs="http://svgjs.com/svgjs" version="1.1" width="512" height="512" x="0" y="0" viewBox="0 0 448 448" style="enable-background:new 0 0 512 512" xml:space="preserve" class=""><g><path xmlns="http://www.w3.org/2000/svg" d="m48 288h48v48h-48zm0 0" fill="#ff8730" data-original="#000000" style="" class=""/><path xmlns="http://www.w3.org/2000/svg" d="m48 120h48v-20.6875l-10.34375 10.34375c-3.125 3.121094-8.1875 3.121094-11.3125 0l-16-16 11.3125-11.3125 10.34375 10.34375 16-16v-4.6875h-48zm0 0" fill="#ff8730" data-original="#000000" style="" class=""/><path xmlns="http://www.w3.org/2000/svg" d="m48 232h48v-20.6875l-10.34375 10.34375c-3.125 3.121094-8.1875 3.121094-11.3125 0l-16-16 11.3125-11.3125 10.34375 10.34375 16-16v-4.6875h-48zm0 0" fill="#ff8730" data-original="#000000" style="" class=""/><path xmlns="http://www.w3.org/2000/svg" d="m352 72c0-13.253906-10.746094-24-24-24h-8v328c-.027344 22.082031-17.917969 39.972656-40 40h-232v8c0 13.253906 10.746094 24 24 24h256c13.253906 0 24-10.746094 24-24zm0 0" fill="#ff8730" data-original="#000000" style="" class=""/><path xmlns="http://www.w3.org/2000/svg" d="m234.34375 26.34375c3.125-3.121094 8.1875-3.121094 11.3125 0l10.34375 10.34375v-36.6875h-32v36.6875zm0 0" fill="#ff8730" data-original="#000000" style="" class=""/><path xmlns="http://www.w3.org/2000/svg" d="m304 376v-352c0-13.253906-10.746094-24-24-24h-8v56c0 3.234375-1.949219 6.152344-4.9375 7.390625s-6.429688.550781-8.71875-1.734375l-18.34375-18.34375-18.34375 18.34375c-2.289062 2.285156-5.730469 2.972656-8.71875 1.734375s-4.9375-4.15625-4.9375-7.390625v-56h-184c-13.253906 0-24 10.746094-24 24v352c0 13.253906 10.746094 24 24 24h256c13.253906 0 24-10.746094 24-24zm-160-304h48v16h-48zm0 112h48v16h-48zm0 104h48v16h-48zm-32 56c0 4.417969-3.582031 8-8 8h-64c-4.417969 0-8-3.582031-8-8v-64c0-4.417969 3.582031-8 8-8h64c4.417969 0 8 3.582031 8 8zm0-148.6875v44.6875c0 4.417969-3.582031 8-8 8h-64c-4.417969 0-8-3.582031-8-8v-64c0-4.417969 3.582031-8 8-8h64c3.332031.023438 6.296875 2.113281 7.449219 5.238281l10.894531-10.894531 11.3125 11.3125zm0-112v44.6875c0 4.417969-3.582031 8-8 8h-64c-4.417969 0-8-3.582031-8-8v-64c0-4.417969 3.582031-8 8-8h64c3.332031.023438 6.296875 2.113281 7.449219 5.238281l10.894531-10.894531 11.3125 11.3125zm112 252.6875h-80v-16h80zm0-32h-16v-16h16zm0-72h-80v-16h80zm0-112h-80v-16h80zm0 0" fill="#ff8730" data-original="#000000" style="" class=""/></g></svg>
